<?xml version="1.0" encoding="utf-8"?>
<!-- Generator: Adobe Illustrator 22.1.0, SVG Export Plug-In . SVG Version: 6.00 Build 0)  -->
<svg version="1.1" id="Ebene_1" xmlns="http://www.w3.org/2000/svg" xmlns:xlink="http://www.w3.org/1999/xlink" x="0px" y="0px"
	 viewBox="0 0 95.6 96.7" style="enable-background:new 0 0 95.6 96.7;" xml:space="preserve">
<style type="text/css">
	.st0{fill:#00B2E4;}
</style>
<g>
	<g>
		<path class="st0" d="M95.3,50c0.7-2,0.1-4.2-1.4-5.8L51.8,1.7c-2-2-5.5-2.5-8,0L1.7,44.3l0,0c-2,2-2.5,5.5,0,8.1L43.8,95
			c1.2,1.2,2.6,1.7,3.9,1.7c1.5,0,3-0.6,4-1.7l42.1-42.6C94.1,52,94.9,51.2,95.3,50z M21.5,61.1L8.8,48.3l12.7-12.8V61.1z
			 M47.8,87.7L31.9,71.6V62l15.8,16.1l0,0l0,0l1.3-1.3L63.7,62l0.1,9.5L47.8,87.7z M47.7,61.7L21.6,35.3L47.8,8.9l26.1,26.4
			L47.7,61.7z M74,61.1V35.5l12.7,12.8L74,61.1z"/>
	</g>
</g>
</svg>
